<svg width="24" height="24" viewBox="0 0 24 24" fill="none" xmlns="http://www.w3.org/2000/svg">
<path fill-rule="evenodd" clip-rule="evenodd" d="M12 1C9.37666 1 7.25001 3.12665 7.25001 5.75V6.18575C6.86936 6.26088 6.51752 6.36816 6.17963 6.52306C5.17419 6.98397 4.32302 7.72509 3.72817 8.65756C3.36813 9.22195 3.15449 9.8533 2.98667 10.6235C2.82224 11.378 2.69159 12.3188 2.52537 13.5156L2.51616 13.5819C2.30226 15.122 2.13504 16.3259 2.08425 17.2957C2.03268 18.2803 2.09506 19.1008 2.39126 19.8541C2.87539 21.0853 3.76927 22.112 4.92219 22.7609C5.62757 23.1579 6.43171 23.3325 7.41407 23.4169C8.38159 23.5 9.59709 23.5 11.1519 23.5H12.8481C14.4029 23.5 15.6184 23.5 16.586 23.4169C17.5683 23.3325 18.3724 23.1579 19.0778 22.7609C20.2308 22.112 21.1246 21.0853 21.6088 19.8541C21.905 19.1008 21.9673 18.2803 21.9158 17.2957C21.865 16.3259 21.6978 15.1219 21.4838 13.5818L21.4746 13.5156C21.3084 12.3188 21.1778 11.378 21.0134 10.6235C20.8455 9.8533 20.6319 9.22195 20.2719 8.65756C19.677 7.72509 18.8258 6.98397 17.8204 6.52306C17.4825 6.36816 17.1307 6.26088 16.75 6.18575V5.75C16.75 3.12665 14.6234 1 12 1ZM8.00001 11.5C7.5858 11.5 7.25001 11.1642 7.25001 10.75V7.72563C7.08713 7.77076 6.94112 7.82407 6.80471 7.88661C6.06156 8.22728 5.43244 8.77507 4.99277 9.46428C4.76581 9.82006 4.60103 10.2602 4.45228 10.9428C4.30152 11.6347 4.17825 12.5185 4.00684 13.7526C3.78694 15.3359 3.62922 16.4762 3.58219 17.3741C3.53556 18.2646 3.6039 18.839 3.78722 19.3052C4.14505 20.2153 4.80575 20.9741 5.65791 21.4537C6.09449 21.6994 6.654 21.8461 7.54243 21.9224C8.43825 21.9994 9.58942 22 11.1879 22H12.8121C14.4106 22 15.5618 21.9994 16.4576 21.9224C17.346 21.8461 17.9055 21.6994 18.3421 21.4537C19.1943 20.9741 19.855 20.2153 20.2128 19.3052C20.3961 18.839 20.4645 18.2646 20.4178 17.3741C20.3708 16.4762 20.2131 15.3359 19.9932 13.7526C19.8218 12.5185 19.6985 11.6347 19.5477 10.9428C19.399 10.2602 19.2342 9.82006 19.0073 9.46428C18.5676 8.77507 17.9385 8.22729 17.1953 7.88661C17.0589 7.82407 16.9129 7.77076 16.75 7.72563V10.75C16.75 11.1642 16.4142 11.5 16 11.5C15.5858 11.5 15.25 11.1642 15.25 10.75V7.52999C14.6162 7.50051 13.8339 7.5 12.8121 7.5H11.1879C10.1662 7.5 9.38386 7.50051 8.75001 7.52999V10.75C8.75001 11.1642 8.41422 11.5 8.00001 11.5ZM12.8574 6C13.7972 5.99999 14.5821 5.99999 15.25 6.02865V5.75C15.25 3.95507 13.7949 2.5 12 2.5C10.2051 2.5 8.75001 3.95507 8.75001 5.75V6.02865C9.41789 5.99999 10.2028 5.99999 11.1426 6H12.8574Z" fill="#E5E5E5"/>
</svg>
