<svg width="24" height="24" viewBox="0 0 24 24" fill="none" xmlns="http://www.w3.org/2000/svg">
<path fill-rule="evenodd" clip-rule="evenodd" d="M20.8469 3.9356C19.5193 2.58176 18.0414 2.16294 16.6535 2.26454C15.3031 2.3634 14.087 2.94917 13.1988 3.5126C12.4984 3.95692 11.5014 3.95692 10.8009 3.5126C9.91271 2.94918 8.69661 2.36341 7.34625 2.26456C5.95836 2.16296 4.48047 2.58178 3.15291 3.9356C1.58564 5.53389 1.09392 7.50692 1.29137 9.50268C1.48655 11.4754 2.35188 13.4809 3.50599 15.2579C4.66318 17.0396 6.14138 18.6393 7.62434 19.8008C9.07469 20.9368 10.6527 21.75 11.9999 21.75C13.3471 21.75 14.9251 20.9368 16.3755 19.8008C17.8584 18.6393 19.3366 17.0396 20.4938 15.2579C21.6479 13.4809 22.5132 11.4754 22.7084 9.50268C22.9059 7.50691 22.4141 5.53389 20.8469 3.9356ZM14.0023 4.77925C14.7878 4.281 15.76 3.83397 16.763 3.76054C17.7285 3.68986 18.7692 3.95926 19.7759 4.98582C20.9791 6.21285 21.3775 7.7199 21.2157 9.355C21.0516 11.0131 20.3084 12.7893 19.2358 14.4408C18.1663 16.0876 16.7996 17.5633 15.4505 18.6199C14.0689 19.7021 12.8278 20.25 11.9999 20.25C11.172 20.25 9.93095 19.7021 8.54928 18.6199C7.20023 17.5633 5.83349 16.0876 4.76396 14.4408C3.69134 12.7893 2.94813 11.0131 2.78408 9.355C2.62231 7.7199 3.02068 6.21286 4.22391 4.98582C5.23054 3.95928 6.27121 3.68987 7.23674 3.76056C8.2398 3.83398 9.21199 4.28101 9.99743 4.77925C11.1884 5.5347 12.8114 5.5347 14.0023 4.77925Z" fill="#E5E5E5"/>
</svg>
