<svg width="24" height="24" viewBox="0 0 24 24" fill="none" xmlns="http://www.w3.org/2000/svg">
<path fill-rule="evenodd" clip-rule="evenodd" d="M11.0999 1.25C7.70436 1.25 5.07718 4.22603 5.49834 7.59536L5.5777 8.23021C5.69382 9.15916 5.35449 10.0871 4.66648 10.7219C3.2408 12.0375 2.84471 14.1315 3.69136 15.8769L3.79471 16.09C4.58388 17.7169 6.23318 18.75 8.04141 18.75H16.2622C17.8219 18.75 19.2736 17.9532 20.111 16.6373C21.2931 14.7799 20.98 12.3432 19.3667 10.845L19.3229 10.8042C18.5843 10.1183 18.2207 9.11912 18.3457 8.11901L18.4103 7.60208C18.832 4.22918 16.202 1.25 12.8028 1.25H11.0999ZM6.98676 7.40931C6.6775 4.93526 8.60661 2.75 11.0999 2.75H12.8028C15.2997 2.75 17.2316 4.93841 16.9219 7.41603L16.8573 7.93296C16.6725 9.41174 17.2101 10.8892 18.3021 11.9033L18.346 11.9441C19.4288 12.9497 19.639 14.5852 18.8455 15.832C18.2835 16.7152 17.3091 17.25 16.2622 17.25H8.04141C6.80784 17.25 5.68268 16.5452 5.14431 15.4353L5.04096 15.2223C4.48288 14.0718 4.74397 12.6915 5.68373 11.8243C6.72749 10.8611 7.24228 9.45345 7.06612 8.04416L6.98676 7.40931Z" fill="#E5E5E5"/>
<path d="M9.78333 20.55C9.5348 20.2186 9.0647 20.1515 8.73333 20.4C8.40196 20.6485 8.3348 21.1186 8.58333 21.45L8.88333 21.85C10.5333 24.05 13.8333 24.05 15.4833 21.85L15.7833 21.45C16.0319 21.1186 15.9647 20.6485 15.6333 20.4C15.302 20.1515 14.8319 20.2186 14.5833 20.55L14.2833 20.95C13.2333 22.35 11.1333 22.35 10.0833 20.95L9.78333 20.55Z" fill="#E5E5E5"/>
</svg>
